HIERARCHY
ROOT Hips
{
	OFFSET 0.000000 89.005402 0.000000
	CHANNELS 6 Xposition Yposition Zposition Xrotation Yrotation Zrotation
	JOINT Spine
	{
		OFFSET 0.116900 10.681000 0.373400
		CHANNELS 3 Xrotation Yrotation Zrotation
		JOINT Spine1
		{
			OFFSET 0.000000 13.840401 0.053500
			CHANNELS 3 Xrotation Yrotation Zrotation
			JOINT Spine2
			{
				OFFSET 0.000000 14.712700 -0.366200
				CHANNELS 3 Xrotation Yrotation Zrotation
				JOINT Neck
				{
					OFFSET 0.000000 35.415497 -3.314200
					CHANNELS 3 Xrotation Yrotation Zrotation
					JOINT Head
					{
						OFFSET 0.000000 16.899200 1.218300
						CHANNELS 3 Xrotation Yrotation Zrotation
						JOINT HeadTop_End
						{
							OFFSET 0.000000 22.206207 2.192500
							CHANNELS 3 Xrotation Yrotation Zrotation
							End Site
							{
								OFFSET 0.000000 22.314178 0.000000
							}
						}
					}
				}
				JOINT LeftShoulder
				{
					OFFSET 12.896400 26.716293 -4.548400
					CHANNELS 3 Xrotation Yrotation Zrotation
					JOINT LeftArm
					{
						OFFSET 19.027000 -4.857010 -1.718400
						CHANNELS 3 Xrotation Yrotation Zrotation
						JOINT LeftForeArm
						{
							OFFSET 24.179897 0.000000 0.000000
							CHANNELS 3 Xrotation Yrotation Zrotation
							JOINT LeftHand
							{
								OFFSET 27.156403 0.000000 0.000000
								CHANNELS 3 Xrotation Yrotation Zrotation
								JOINT LeftHandIndex1
								{
									OFFSET 16.441200 0.000000 0.000000
									CHANNELS 3 Xrotation Yrotation Zrotation
									JOINT LeftHandIndex2
									{
										OFFSET 4.821899 0.000000 0.000000
										CHANNELS 3 Xrotation Yrotation Zrotation
										JOINT LeftHandIndex3
										{
											OFFSET 6.386497 0.000000 0.000000
											CHANNELS 3 Xrotation Yrotation Zrotation
											JOINT LeftHandIndex4
											{
												OFFSET 5.188988 0.000000 0.000000
												CHANNELS 3 Xrotation Yrotation Zrotation
												End Site
												{
													OFFSET -0.178703 5.185913 0.000177
												}
											}
										}
									}
								}
								JOINT LeftHandThumb1
								{
									OFFSET 6.534897 -5.032593 5.900300
									CHANNELS 3 Xrotation Yrotation Zrotation
									JOINT LeftHandThumb2
									{
										OFFSET 3.818176 -2.204422 2.204423
										CHANNELS 3 Xrotation Yrotation Zrotation
										JOINT LeftHandThumb3
										{
											OFFSET 3.252098 -1.877594 1.877601
											CHANNELS 3 Xrotation Yrotation Zrotation
											JOINT LeftHandThumb4
											{
												OFFSET 5.251778 -3.032120 3.032117
												CHANNELS 3 Xrotation Yrotation Zrotation
												End Site
												{
													OFFSET 0.000023 6.780014 0.000000
												}
											}
										}
									}
								}
							}
						}
					}
				}
				JOINT RightShoulder
				{
					OFFSET -12.896300 26.716293 -4.548400
					CHANNELS 3 Xrotation Yrotation Zrotation
					JOINT RightArm
					{
						OFFSET -19.027000 -4.857010 -1.718400
						CHANNELS 3 Xrotation Yrotation Zrotation
						JOINT RightForeArm
						{
							OFFSET -24.179897 0.000000 0.000000
							CHANNELS 3 Xrotation Yrotation Zrotation
							JOINT RightHand
							{
								OFFSET -27.156403 0.000000 0.000000
								CHANNELS 3 Xrotation Yrotation Zrotation
								JOINT RightHandThumb1
								{
									OFFSET -6.591202 -4.852203 5.988100
									CHANNELS 3 Xrotation Yrotation Zrotation
									JOINT RightHandThumb2
									{
										OFFSET -3.818176 -2.204422 2.204423
										CHANNELS 3 Xrotation Yrotation Zrotation
										JOINT RightHandThumb3
										{
											OFFSET -3.252098 -1.877594 1.877601
											CHANNELS 3 Xrotation Yrotation Zrotation
											JOINT RightHandThumb4
											{
												OFFSET -5.251778 -3.032120 3.032117
												CHANNELS 3 Xrotation Yrotation Zrotation
												End Site
												{
													OFFSET -0.000023 6.780014 0.000000
												}
											}
										}
									}
								}
								JOINT RightHandIndex1
								{
									OFFSET -16.029404 0.000000 0.000000
									CHANNELS 3 Xrotation Yrotation Zrotation
									JOINT RightHandIndex2
									{
										OFFSET -5.213303 0.000000 0.000000
										CHANNELS 3 Xrotation Yrotation Zrotation
										JOINT RightHandIndex3
										{
											OFFSET -6.386528 0.000000 0.000000
											CHANNELS 3 Xrotation Yrotation Zrotation
											JOINT RightHandIndex4
											{
												OFFSET -5.189026 0.000000 0.000000
												CHANNELS 3 Xrotation Yrotation Zrotation
												End Site
												{
													OFFSET 0.236702 5.183624 0.001972
												}
											}
										}
									}
								}
							}
						}
					}
				}
			}
		}
	}
	JOINT LeftUpLeg
	{
		OFFSET 14.073000 -7.904099 -1.463000
		CHANNELS 3 Xrotation Yrotation Zrotation
		JOINT LeftLeg
		{
			OFFSET -0.109806 -34.073280 4.093200
			CHANNELS 3 Xrotation Yrotation Zrotation
			JOINT LeftFoot
			{
				OFFSET 0.109806 -29.899420 -6.319000
				CHANNELS 3 Xrotation Yrotation Zrotation
				JOINT LeftToeBase
				{
					OFFSET 1.551100 -14.988700 20.535801
					CHANNELS 3 Xrotation Yrotation Zrotation
					JOINT LeftToe_End
					{
						OFFSET 0.221200 0.570800 13.248301
						CHANNELS 3 Xrotation Yrotation Zrotation
						End Site
						{
							OFFSET 0.000000 13.262435 0.000000
						}
					}
				}
			}
		}
	}
	JOINT RightUpLeg
	{
		OFFSET -13.839300 -7.904099 -1.463000
		CHANNELS 3 Xrotation Yrotation Zrotation
		JOINT RightLeg
		{
			OFFSET 0.109694 -34.073219 4.093300
			CHANNELS 3 Xrotation Yrotation Zrotation
			JOINT RightFoot
			{
				OFFSET -0.109694 -29.899384 -6.319200
				CHANNELS 3 Xrotation Yrotation Zrotation
				JOINT RightToeBase
				{
					OFFSET -1.551100 -14.988700 20.535801
					CHANNELS 3 Xrotation Yrotation Zrotation
					JOINT RightToe_End
					{
						OFFSET -0.221200 0.570900 13.248299
						CHANNELS 3 Xrotation Yrotation Zrotation
						End Site
						{
							OFFSET 0.000000 13.262440 0.000000
						}
					}
				}
			}
		}
	}
}
MOTION
Frames: 7
Frame Time: 0.033333
-14.069185 84.044006 326.620026 -179.766576 35.425924 180.474266 11.087572 0.154442 -1.768643 1.735651 0.148497 -0.179868 1.732961 0.177682 -0.190477 1.579551 0.982026 0.996567 -4.430800 16.086875 -4.262830 0.000001 0.000000 0.000000 0.702147 0.708864 -12.803445 23.814518 -12.298644 -44.458494 -0.000131 -108.354845 -0.000124 16.926585 5.613768 -15.899420 -0.434815 -2.561814 -5.759551 0.044226 0.719116 -7.035374 0.022242 -0.510635 4.989335 0.000002 -0.000003 0.000000 2.486145 1.369365 6.966888 9.875507 7.660271 2.353368 -4.090576 -39.001483 7.359984 -0.000003 0.000000 0.000000 0.334166 7.710429 16.483963 -36.406855 11.231147 56.280414 -0.000018 142.375075 0.000015 -6.234866 17.014920 -0.994005 13.455070 -5.939488 -4.720048 5.755945 -21.916803 -8.595454 -16.923267 -4.738753 -12.756822 0.000005 0.000002 -0.000001 -2.134804 4.348259 16.985022 0.276532 -1.582448 19.823541 0.031325 -0.539834 6.641882 -0.000002 -0.000000 -0.000000 -19.930968 7.213026 -1.577508 28.622399 2.187672 0.006992 -8.642106 -0.559608 3.017704 -0.210318 0.000009 -0.000001 -0.000000 -0.000002 -0.000000 -3.524925 -11.918544 -16.686384 33.358118 -9.639273 -9.919151 -7.665351 -6.761281 23.372177 -9.988694 -0.509895 6.437122 0.000000 -0.000001 0.000000 
-14.043434 83.945839 325.193481 -179.085497 34.209074 180.079099 11.179479 -0.012049 -1.861401 1.718540 0.104539 -0.224568 1.716361 0.134166 -0.234092 1.507140 0.991076 1.153548 -4.505007 16.431975 -3.927875 -0.000000 -0.000002 0.000000 0.669647 0.415052 -12.078682 23.383245 -11.471199 -45.449281 0.000022 -108.880626 0.000010 14.634695 6.466020 -15.379458 -0.371602 -2.636116 -5.035026 0.035647 0.646176 -6.318634 0.029203 -0.584712 5.715414 -0.000002 0.000000 -0.000000 2.315668 0.691474 6.748033 9.625350 6.994678 2.200402 -4.335179 -39.679318 7.023240 0.000000 0.000000 -0.000001 0.311120 7.775545 16.987314 -37.791488 11.064987 56.257495 -0.000020 142.360813 0.000009 -6.835574 16.203951 -0.719956 13.455157 -5.939822 -4.720189 5.756028 -21.917092 -8.595529 -16.921254 -4.738596 -12.756926 -0.000003 0.000000 -0.000001 -2.135899 4.347476 16.993878 0.276780 -1.583149 19.832684 0.031413 -0.540559 6.650834 0.000001 0.000001 0.000000 -18.561545 7.495322 -2.447338 29.254431 1.100870 -0.006598 -9.998745 -0.750465 4.010366 -0.249773 -0.000002 -0.000001 0.000000 -0.000000 0.000000 -5.118429 -9.396644 -15.365851 36.852870 -8.174182 -10.207786 -9.714498 -3.790344 23.022095 -12.137203 -0.640703 6.206030 0.000000 0.000002 0.000000 
-13.981842 83.942749 323.775879 -177.975250 32.535289 179.502822 11.611673 -0.442914 -1.909018 1.765634 -0.014604 -0.273035 1.765170 0.014926 -0.279162 1.436247 1.008624 1.297884 -4.493211 16.687358 -3.651385 -0.000000 0.000001 -0.000000 0.648133 0.046547 -11.627334 22.510574 -10.515879 -46.176218 0.000020 -109.360030 0.000023 13.895787 5.732261 -14.197638 -0.305693 -2.711708 -4.289871 0.027841 0.571055 -5.581631 0.037290 -0.660780 6.462074 -0.000001 -0.000001 -0.000000 2.138748 -0.005092 6.520820 9.367454 6.310573 2.040539 -4.593441 -40.375379 6.670201 -0.000005 -0.000001 -0.000001 0.305343 7.678957 17.309689 -38.906154 10.932234 56.174225 0.000016 142.151359 -0.000017 -7.582538 16.074459 -0.435001 13.455266 -5.940123 -4.720272 5.756080 -21.917385 -8.595639 -16.919181 -4.738445 -12.756980 -0.000001 -0.000002 -0.000001 -2.137018 4.346710 17.002760 0.277034 -1.583851 19.841821 0.031494 -0.541285 6.659781 0.000002 -0.000000 0.000003 -16.519128 7.825671 -3.295075 29.396567 -0.452205 -0.050302 -11.064059 -0.990842 5.122406 -0.226748 0.000009 -0.000001 -0.000000 0.000000 0.000000 -5.877925 -7.600547 -13.629029 38.882286 -6.750507 -10.191454 -10.407601 -3.805685 22.920751 -14.837944 -0.591604 3.751053 0.000000 0.000000 -0.000000 
-13.899604 84.014923 322.317596 -176.958850 30.563263 178.976037 12.008053 -1.030138 -1.786456 1.837030 -0.184112 -0.289060 1.838841 -0.155201 -0.290376 1.369635 1.047077 1.376852 -4.637297 16.970935 -3.598861 -0.000000 -0.000001 0.000000 0.642934 -0.167000 -11.572791 21.009616 -9.645713 -46.528458 0.000068 -109.722570 0.000063 14.668598 4.443563 -13.620370 -0.238264 -2.787111 -3.537766 0.020893 0.495173 -4.837893 0.046505 -0.737433 7.215587 -0.000000 -0.000001 0.000001 1.958483 -0.707510 6.289230 9.106452 5.620518 1.876536 -4.861398 -41.076819 6.306669 0.000002 0.000000 -0.000001 0.312229 7.502305 17.449610 -39.576141 11.161764 56.034315 -0.000027 141.852497 0.000030 -8.016425 16.288731 -0.523243 13.455352 -5.940424 -4.720380 5.756182 -21.917669 -8.595697 -16.917149 -4.738288 -12.757093 0.000002 -0.000001 -0.000002 -2.138139 4.345945 17.011629 0.277285 -1.584545 19.850961 0.031581 -0.542014 6.668732 0.000000 -0.000003 -0.000003 -14.320053 8.120439 -4.101896 29.162063 -2.288009 -0.086832 -11.861289 -1.254071 6.332334 -0.257772 0.000003 -0.000000 0.000000 0.000002 0.000000 -6.799392 -6.220644 -11.745044 39.745960 -6.552309 -9.928307 -10.651338 -3.720370 22.723180 -16.122592 -0.292183 1.489617 -0.000000 -0.000000 0.000000 
-13.793162 84.115440 320.795715 -176.351823 28.907731 178.735805 12.050705 -1.269724 -1.683697 1.909341 -0.257467 -0.338483 1.911871 -0.229429 -0.338148 1.334844 1.057503 1.429944 -5.039162 17.135184 -3.695063 0.000001 0.000000 0.000000 0.636397 -0.289790 -11.409844 19.536440 -9.030649 -46.661308 0.000019 -110.007969 0.000010 14.935728 3.642937 -13.034865 -0.170586 -2.860945 -2.792360 0.015024 0.419890 -4.100940 0.056606 -0.813276 7.962268 0.000000 -0.000000 -0.000001 1.778085 -1.403013 6.057444 8.847010 4.937076 1.711382 -5.134084 -41.770968 5.939691 -0.000001 -0.000000 -0.000002 0.319195 7.326770 17.597742 -39.843154 11.426223 55.919770 -0.000015 141.690580 0.000014 -8.064883 16.403755 -0.684104 13.455458 -5.940748 -4.720510 5.756252 -21.917934 -8.595794 -16.915119 -4.738122 -12.757183 -0.000001 -0.000001 -0.000001 -2.139240 4.345159 17.020483 0.277541 -1.585249 19.860102 0.031661 -0.542730 6.677706 -0.000000 -0.000001 0.000001 -12.239562 8.298790 -4.929164 28.621343 -3.926751 -0.115002 -12.523268 -1.500552 7.453126 -0.326608 0.000005 -0.000000 -0.000000 -0.000002 0.000000 -8.568134 -4.863462 -9.833140 40.014151 -6.777533 -9.679909 -10.772363 -3.496285 21.623380 -15.599153 -0.014096 0.068545 -0.000000 -0.000002 0.000000 
-13.644901 84.208412 319.254700 -175.679719 27.430390 178.583110 12.136176 -1.294235 -1.705640 2.033041 -0.263885 -0.434113 2.035426 -0.235656 -0.434263 1.309409 1.036876 1.487416 -5.506993 17.111260 -3.781826 -0.000000 -0.000000 0.000000 0.622077 -0.468363 -10.964047 18.160267 -8.458297 -47.014883 -0.000103 -110.453236 -0.000114 15.218435 3.295359 -12.221728 -0.103904 -2.931858 -2.067264 0.010244 0.346599 -3.384220 0.067382 -0.886886 8.688486 -0.000002 -0.000000 -0.000001 1.600862 -2.078873 5.829807 8.593860 4.272700 1.548200 -5.405722 -42.445309 5.577051 -0.000001 0.000001 -0.000001 0.317904 7.272795 17.748037 -39.829265 11.442199 56.014429 -0.000013 141.722723 -0.000013 -7.796004 16.407812 -0.769050 13.455548 -5.941052 -4.720624 5.756327 -21.918203 -8.595848 -16.913036 -4.737966 -12.757265 -0.000001 -0.000001 -0.000000 -2.140345 4.344392 17.029371 0.277798 -1.585942 19.869241 0.031746 -0.543455 6.686672 0.000002 0.000001 0.000000 -9.703148 8.500040 -5.691162 27.869772 -4.472265 -0.130059 -13.488355 -1.682374 8.160434 -0.000003 0.000007 -0.000002 0.000000 -0.000000 -0.000000 -10.349907 -3.985211 -7.635673 39.319049 -7.126904 -9.610504 -11.678899 -2.898674 18.668468 -12.202644 0.002735 -0.018738 -0.000000 0.000002 0.000000 
-13.465164 84.304451 317.723267 -175.090014 25.804562 178.499986 12.238992 -1.391730 -1.701107 2.141393 -0.289484 -0.494904 2.143919 -0.261107 -0.494916 1.292933 1.031132 1.512278 -5.753604 17.047807 -3.844232 0.000000 -0.000000 0.000000 0.614032 -0.598313 -10.699933 16.982500 -7.872123 -47.257092 0.000023 -111.184476 0.000031 16.127689 2.767075 -10.362213 -0.039592 -2.998705 -1.376233 0.006534 0.276707 -2.701314 0.078501 -0.956909 9.380508 0.000000 -0.000000 -0.000000 1.430399 -2.722411 5.610804 8.351792 3.639996 1.390372 -5.671441 -43.086920 5.224582 -0.000000 0.000001 0.000000 0.310630 7.361942 17.775368 -39.545822 11.407201 56.086174 0.000006 141.832853 0.000004 -7.359321 16.526833 -1.267916 13.455640 -5.941336 -4.720697 5.756409 -21.918478 -8.595940 -16.910993 -4.737800 -12.757346 0.000001 0.000000 -0.000001 -2.141469 4.343626 17.038267 0.278047 -1.586655 19.878381 0.031836 -0.544179 6.695615 0.000002 -0.000001 0.000001 -6.844278 8.663237 -6.298030 26.861792 -3.306679 0.004181 -14.865120 -1.718326 8.103762 -0.000011 -0.000003 -0.000001 -0.000000 -0.000000 -0.000000 -11.735405 -3.727340 -5.431302 36.685393 -7.493715 -9.463967 -12.043587 -1.846017 15.472803 -7.831532 0.003025 -0.036676 -0.000000 0.000002 -0.000000 
